# xmcd
# 
# Track frame offsets:
#     150
#     20550
#     39532
# 
# Disc length: 797
# 
# Revision: 1
# Processed by: cddbd v1.5.2PL0 Copyright (c) Steve Scherf et al.
# Submitted via: fre:ac v1.0.31
# 
DISCID=1d031b03
DTITLE=ribbon - 太陽に火をつけて
DYEAR=1992
DGENRE=JPop
TTITLE0=太陽に火をつけて
TTITLE1=正しいハートの行方
TTITLE2=太陽に火をつけて オリジナル・カラオケ
EXTD=YEAR: 1992/06/03
EXTT0=
EXTT1=
EXTT2=
PLAYORDER=
